PathFileType	4	(X/Y/Z)	/Users/itak/Documents/Research/Walk-IL/dataset/trc/00180_00008.trc
DataRate	CameraRate	NumFrames	NumMarkers	Units	OrigDataRate	OrigDataStartFrame	OrigNumFrames
100.000000	100.000000	4	53	mm	100.000000	248	663
Frame#	Time	RPSI			LPSI			L3			STRN			T10			C7			CLAV			RBAK			LBAK			LSHO			LUPA			LAEL			LAOL			LWTS			LWPS			LFRA			LIFD			LHPS			LHTS			RSHO			RUPA			RAEL			RAOL			RWTS			RWPS			RFRA			RIFD			RHTS			RHPS			RBHD			LFHD			RFHD			LBHD			LHIP			RHIP			RASI			LASI			LKNE			LTHI			LANK			LTIP			LTOE			LMT1			LMT5			LHEE			RKNE			RTHI			RANK			RTIP			RTOE			RMT1			RMT5			RHEE			
		X1	Y1	Z1	X2	Y2	Z2	X3	Y3	Z3	X4	Y4	Z4	X5	Y5	Z5	X6	Y6	Z6	X7	Y7	Z7	X8	Y8	Z8	X9	Y9	Z9	X10	Y10	Z10	X11	Y11	Z11	X12	Y12	Z12	X13	Y13	Z13	X14	Y14	Z14	X15	Y15	Z15	X16	Y16	Z16	X17	Y17	Z17	X18	Y18	Z18	X19	Y19	Z19	X20	Y20	Z20	X21	Y21	Z21	X22	Y22	Z22	X23	Y23	Z23	X24	Y24	Z24	X25	Y25	Z25	X26	Y26	Z26	X27	Y27	Z27	X28	Y28	Z28	X29	Y29	Z29	X30	Y30	Z30	X31	Y31	Z31	X32	Y32	Z32	X33	Y33	Z33	X34	Y34	Z34	X35	Y35	Z35	X36	Y36	Z36	X37	Y37	Z37	X38	Y38	Z38	X39	Y39	Z39	X40	Y40	Z40	X41	Y41	Z41	X42	Y42	Z42	X43	Y43	Z43	X44	Y44	Z44	X45	Y45	Z45	X46	Y46	Z46	X47	Y47	Z47	X48	Y48	Z48	X49	Y49	Z49	X50	Y50	Z50	X51	Y51	Z51	X52	Y52	Z52	X53	Y53	Z53	

249	2.48	910.8346557617188	1044.078979492188	-109.1010971069336	797.309326171875	1034.439697265625	-59.79689025878906	852.291259765625	1076.146118164062	-82.22867584228516	737.7276611328125	1297.718994140625	-314.4271240234375	844.0475463867188	1233.661499023438	-30.14117431640625	784.7055053710938	1501.23046875	-77.63360595703125	729.6229248046875	1410.038818359375	-279.3872375488281	926.083984375	1337.964233398438	-60.70635223388672	694.1685791015625	1469.97265625	-39.4373893737793	598.8236694335938	1455.988525390625	-89.07342529296875	544.8058471679688	1317.225708007812	-48.61518478393555	526.5560913085938	1101.817626953125	-86.40495300292969	611.9760131835938	1082.726440429688	-73.9111328125	500.3938293457031	909.0823364257812	-258.2337951660156	501.5302429199219	862.923583984375	-175.7570343017578	507.1769409179688	995.1469116210938	-120.6408843994141	506.2816162109375	736.3547973632812	-332.3625793457031	493.9202880859375	802.203125	-216.6287384033203	474.1154479980469	833.4564208984375	-280.5404663085938	935.3738403320312	1504.924682617188	-198.032470703125	1012.397338867188	1447.689086914062	-203.4842529296875	1101.656982421875	1167.3046875	-215.7570495605469	1010.388977050781	1150.73388671875	-185.87744140625	1049.08349609375	962.2061157226562	-381.30712890625	1114.164306640625	935.870849609375	-327.0940246582031	1115.314086914062	1098.056518554688	-255.4780731201172	1020.72265625	780.1554565429688	-426.09326171875	1049.136352539062	874.9304809570312	-425.2313232421875	1102.24755859375	858.9786376953125	-368.2359008789062	804.0610961914062	1681.572509765625	-199.4554443359375	591.4608154296875	1669.140014648438	-249.5805969238281	689.6484375	1688.523315429688	-331.2776184082031	704.3983154296875	1669.293334960938	-106.047004699707	654.9894409179688	963.7445068359375	-114.3718490600586	966.5349731445312	1018.926452636719	-304.9417724609375	882.1370239257812	1046.681030273438	-352.4415283203125	648.0194091796875	1012.722900390625	-249.2976989746094	759.687255859375	476.3211669921875	-232.5624084472656	707.88525390625	611.9296875	-198.9216613769531	896.0994873046875	35.10074615478516	-197.3007354736328	815.5902709960938	250.3362274169922	-215.1846466064453	803.0662231445312	40.13437271118164	-395.6329345703125	871.252197265625	35.77358245849609	-380.6510009765625	806.8388671875	34.91704940795898	-270.3831481933594	981.2838134765625	38.03944396972656	-189.1122436523438	926.4886474609375	545.3768920898438	-482.2321472167969	949.1376342773438	814.4618530273438	-422.0126037597656	1073.264770507812	103.7314758300781	-286.4765625	939.7948608398438	420.4244079589844	-467.7904663085938	1013.057678222656	58.78807067871094	-493.4930419921875	972.4357299804688	63.69274139404297	-435.5574340820312	1091.443725585938	73.03841400146484	-396.7788696289062	1013.705078125	107.3244400024414	-227.209228515625	
250	2.49	908.2442626953125	1043.6357421875	-118.2790069580078	795.6327514648438	1033.7900390625	-66.81381225585938	850.1026611328125	1075.714233398438	-90.28062438964844	731.0127563476562	1296.599731445312	-321.0357360839844	841.9459838867188	1233.419921875	-38.2877082824707	781.4645385742188	1500.751342773438	-85.67000579833984	723.480712890625	1409.046997070312	-286.3418273925781	923.334228515625	1337.8134765625	-70.62442779541016	691.407470703125	1469.606689453125	-46.06532287597656	595.4783935546875	1455.635498046875	-94.43492889404297	541.3108520507812	1316.981323242188	-54.18984222412109	520.3511352539062	1102.0625	-94.50961303710938	605.660888671875	1081.853393554688	-82.61964416503906	490.8406372070312	913.9899291992188	-270.7592163085938	492.13427734375	865.6661376953125	-189.4476776123047	499.5467834472656	996.3429565429688	-131.017578125	493.8057250976562	743.5645751953125	-349.7973327636719	483.4873046875	806.1630859375	-232.1061401367188	463.3694458007812	839.44677734375	-294.8663940429688	930.32177734375	1504.128662109375	-208.3780212402344	1007.324340820312	1447.071411132812	-214.8544006347656	1097.480834960938	1167.132202148438	-227.7262115478516	1007.24560546875	1150.819580078125	-195.3185424804688	1043.521850585938	961.2792358398438	-391.8352661132812	1109.427001953125	935.4004516601562	-338.3939819335938	1110.86328125	1097.8330078125	-267.3999633789062	1015.360778808594	778.9763793945312	-435.7337951660156	1043.40283203125	873.9129638671875	-435.5235900878906	1097.330932617188	858.3311767578125	-379.1401672363281	799.6421508789062	1680.594604492188	-207.5849914550781	586.4447631835938	1668.822143554688	-255.5551452636719	683.84326171875	1687.871215820312	-338.1976928710938	700.9331665039062	1668.593505859375	-113.0926742553711	652.2659301757812	962.4940185546875	-118.4270858764648	959.7806396484375	1018.459655761719	-315.6697998046875	874.3093872070312	1046.008666992188	-361.1955261230469	642.1724853515625	1011.712768554688	-253.4659729003906	757.7896118164062	475.6485290527344	-233.7724304199219	705.60400390625	611.286376953125	-201.1371459960938	896.0626831054688	35.09318542480469	-197.2963256835938	814.84765625	250.1244201660156	-215.6505889892578	802.8851928710938	39.80473327636719	-395.5777587890625	871.4782104492188	35.43280410766602	-380.6138305664062	806.6902465820312	34.76333236694336	-270.2208251953125	981.1403198242188	38.14374542236328	-189.2460327148438	912.0443115234375	545.9891357421875	-494.3211975097656	938.2374877929688	814.42578125	-433.2406921386719	1057.843017578125	94.36793518066406	-321.9370727539062	923.8397216796875	420.3687438964844	-484.2054748535156	988.132080078125	60.18584823608398	-528.0389404296875	949.955322265625	62.886962890625	-468.1769104003906	1070.812377929688	68.60639190673828	-434.3020629882812	1000.982055664062	96.43323516845703	-260.010009765625	
251	2.5	905.5259399414062	1043.033081054688	-127.3151397705078	793.799072265625	1033.026733398438	-73.90103149414062	847.8184814453125	1075.191040039062	-98.34002685546875	724.24169921875	1295.382568359375	-327.5621337890625	839.78271484375	1233.064331054688	-46.46795272827148	778.1685791015625	1500.1416015625	-93.69245147705078	717.2477416992188	1407.962646484375	-293.236083984375	920.5574340820312	1337.573852539062	-80.56596374511719	688.6378173828125	1469.112060546875	-52.66592788696289	592.10400390625	1455.184326171875	-99.7288818359375	537.820068359375	1316.654663085938	-59.6746711730957	514.1658935546875	1102.29833984375	-102.5122756958008	599.3511962890625	1080.980590820312	-91.18183898925781	481.4867858886719	918.8817749023438	-282.9134826660156	482.7207336425781	868.5156860351562	-202.8470458984375	491.9353637695312	997.5827026367188	-141.1855926513672	481.560546875	750.801025390625	-366.5527954101562	473.0245056152344	810.2598266601562	-247.0830230712891	452.8227233886719	845.47021484375	-308.7569885253906	925.123779296875	1503.216796875	-218.7114410400391	1002.104736328125	1446.355834960938	-226.2805480957031	1093.1845703125	1166.8994140625	-239.9261932373047	1004.222900390625	1150.984497070312	-204.5292205810547	1037.931274414062	960.1015014648438	-402.3326416015625	1104.780395507812	934.8494262695312	-349.7752990722656	1106.327392578125	1097.568969726562	-279.5198364257812	1010.202331542969	777.4508056640625	-445.03955078125	1037.693969726562	872.5653686523438	-445.6601257324219	1092.567749023438	857.5274658203125	-389.9896240234375	795.09521484375	1679.504638671875	-215.7434234619141	581.3185424804688	1668.336059570312	-261.5256042480469	677.9005737304688	1687.03466796875	-345.1211853027344	697.3659057617188	1667.815307617188	-120.1479187011719	649.40380859375	961.2093505859375	-122.684814453125	952.953369140625	1017.839904785156	-326.2303771972656	866.517578125	1045.287719726562	-369.8545837402344	636.5476684570312	1010.650390625	-257.6656799316406	755.8712768554688	474.9668884277344	-235.0844573974609	703.2520751953125	610.6412963867188	-203.5057067871094	896.0192260742188	35.08844375610352	-197.2894744873047	814.0608520507812	249.9237976074219	-216.1607666015625	802.7147216796875	39.41598510742188	-395.5049133300781	871.7593994140625	34.99704360961914	-380.5429382324219	806.4898681640625	34.64357757568359	-270.0473022460938	980.9705810546875	38.25804138183594	-189.4600524902344	897.7510375976562	546.3551635742188	-505.7567443847656	927.2774658203125	814.1734008789062	-444.0401306152344	1040.7158203125	85.61038208007812	-356.929931640625	907.7449340820312	420.3596496582031	-499.9879455566406	961.5774536132812	61.97520446777344	-561.13818359375	926.0133056640625	62.65506744384766	-499.571533203125	1048.41064453125	64.67759704589844	-470.870849609375	986.5975952148438	86.1358642578125	-292.5141906738281	
252	2.51	902.6482543945312	1042.276489257812	-136.2558135986328	791.7839965820312	1032.151123046875	-81.064697265625	845.385009765625	1074.548828125	-106.4253005981445	717.4229736328125	1294.079956054688	-334.0265197753906	837.5460815429688	1232.583862304688	-54.67658996582031	774.8093872070312	1499.3994140625	-101.6960830688477	710.9384765625	1406.802490234375	-300.0789489746094	917.7107543945312	1337.212036132812	-90.51190948486328	685.8466796875	1468.49169921875	-59.24956130981445	588.6921997070312	1454.650634765625	-104.966178894043	534.325439453125	1316.252807617188	-65.06932830810547	508.0240783691406	1102.521606445312	-110.3721771240234	593.0701904296875	1080.11376953125	-99.58103179931641	472.3393859863281	923.7351684570312	-294.6758117675781	473.3271484375	871.4404907226562	-215.951904296875	484.365234375	998.8568115234375	-151.1116333007812	469.5660095214844	758.0191650390625	-382.6185913085938	462.564697265625	814.4637451171875	-261.5404357910156	442.4871520996094	851.493896484375	-322.1849670410156	919.7816162109375	1502.194946289062	-228.9951171875	996.7398681640625	1445.544189453125	-237.7279815673828	1088.745483398438	1166.604370117188	-252.3272552490234	1001.265869140625	1151.211547851562	-213.5561981201172	1032.317749023438	958.687744140625	-412.7981872558594	1100.208129882812	934.2134399414062	-361.2201843261719	1101.685302734375	1097.261962890625	-291.8114013671875	1005.251586914062	775.5988159179688	-454.029296875	1032.019653320312	870.9039306640625	-455.6400146484375	1087.943725585938	856.5731811523438	-400.7816772460938	790.4219970703125	1678.306640625	-223.9322662353516	576.0969848632812	1667.6796875	-267.4854431152344	671.8255004882812	1686.013671875	-352.0520629882812	693.6896362304688	1666.97705078125	-127.207763671875	646.4151611328125	959.9473876953125	-127.1596755981445	946.063232421875	1017.076538085938	-336.6234741210938	858.7638549804688	1044.502685546875	-378.4280395507812	631.2274780273438	1009.521118164062	-261.8936157226562	753.9263916015625	474.2706298828125	-236.5021514892578	700.8171997070312	609.9810180664062	-206.0184631347656	895.9714965820312	35.08935928344727	-197.2821044921875	813.2221069335938	249.7383728027344	-216.7142639160156	802.5408935546875	38.97465896606445	-395.430908203125	872.0342407226562	34.50686264038086	-380.4512939453125	806.2487182617188	34.54309463500977	-269.8737182617188	980.8041381835938	38.40690612792969	-189.6962127685547	883.6929931640625	546.491943359375	-516.5883178710938	916.3164672851562	813.7240600585938	-454.4331359863281	1021.877807617188	77.49652099609375	-391.2698364257812	891.5943603515625	420.4082641601562	-515.140625	933.54296875	64.15445709228516	-592.6898803710938	900.7020263671875	63.00548934936523	-529.6412353515625	1024.297729492188	61.24498748779297	-506.3007507324219	970.5211791992188	76.52975463867188	-324.54345703125	
